<svg xmlns="http://www.w3.org/2000/svg" xmlns:xlink="http://www.w3.org/1999/xlink" width="450" zoomAndPan="magnify" viewBox="0 0 337.5 337.500003" height="450" preserveAspectRatio="xMidYMid meet" version="1.0"><defs><clipPath id="f2b67d1c97"><path d="M 21.0625 110 L 169 110 L 169 279 L 21.0625 279 Z M 21.0625 110 " clip-rule="nonzero"/></clipPath><clipPath id="bc68b16a18"><path d="M 248 121 L 284 121 L 284 155 L 248 155 Z M 248 121 " clip-rule="nonzero"/></clipPath><clipPath id="64aaa6381e"><path d="M 247.933594 139.683594 L 272.660156 121.476562 L 283.316406 135.949219 L 258.59375 154.15625 Z M 247.933594 139.683594 " clip-rule="nonzero"/></clipPath><clipPath id="dd362d6cf8"><path d="M 4 2 L 31 2 L 31 32 L 4 32 Z M 4 2 " clip-rule="nonzero"/></clipPath><clipPath id="a610f33b5e"><path d="M -0.0664062 18.683594 L 24.660156 0.476562 L 35.316406 14.949219 L 10.59375 33.15625 Z M -0.0664062 18.683594 " clip-rule="nonzero"/></clipPath><clipPath id="eab5f7ca64"><path d="M 10.734375 33.34375 L 35.457031 15.136719 L 24.796875 0.664062 L 0.0742188 18.871094 Z M 10.734375 33.34375 " clip-rule="nonzero"/></clipPath><clipPath id="d08dc5a71f"><rect x="0" width="36" y="0" height="34"/></clipPath><clipPath id="51e9987049"><path d="M 231 264 L 255 264 L 255 287 L 231 287 Z M 231 264 " clip-rule="nonzero"/></clipPath><clipPath id="adf8f55c02"><path d="M 230.929688 276.539062 L 247.816406 264.105469 L 254.921875 273.753906 L 238.039062 286.1875 Z M 230.929688 276.539062 " clip-rule="nonzero"/></clipPath><clipPath id="b8f2e48740"><path d="M 3 1 L 21 1 L 21 21 L 3 21 Z M 3 1 " clip-rule="nonzero"/></clipPath><clipPath id="4bfc7c335e"><path d="M -0.0703125 12.539062 L 16.816406 0.105469 L 23.921875 9.753906 L 7.039062 22.1875 Z M -0.0703125 12.539062 " clip-rule="nonzero"/></clipPath><clipPath id="590a7a24eb"><path d="M 7.195312 22.402344 L 24.082031 9.96875 L 16.976562 0.320312 L 0.0898438 12.757812 Z M 7.195312 22.402344 " clip-rule="nonzero"/></clipPath><clipPath id="597e36d128"><rect x="0" width="24" y="0" height="23"/></clipPath><clipPath id="2360029ed2"><path d="M 121 200 L 148 200 L 148 225 L 121 225 Z M 121 200 " clip-rule="nonzero"/></clipPath><clipPath id="ee2e50a15b"><path d="M 121.46875 213.894531 L 139.558594 200.570312 L 147.554688 211.421875 L 129.464844 224.746094 Z M 121.46875 213.894531 " clip-rule="nonzero"/></clipPath><clipPath id="05ba30e018"><path d="M 4 2 L 23 2 L 23 23 L 4 23 Z M 4 2 " clip-rule="nonzero"/></clipPath><clipPath id="76b1e5a723"><path d="M 0.46875 13.894531 L 18.558594 0.570312 L 26.554688 11.421875 L 8.464844 24.746094 Z M 0.46875 13.894531 " clip-rule="nonzero"/></clipPath><clipPath id="dc4c7cf7ea"><path d="M 8.347656 24.585938 L 26.4375 11.261719 L 18.441406 0.410156 L 0.351562 13.734375 Z M 8.347656 24.585938 " clip-rule="nonzero"/></clipPath><clipPath id="1500282b9e"><rect x="0" width="27" y="0" height="25"/></clipPath></defs><path fill="#bee0ec" d="M 309.550781 52.796875 L 219.195312 2.101562 C 215.519531 0 211.050781 0 207.375 2.101562 L 116.492188 52.796875 C 112.816406 54.898438 110.714844 58.835938 110.714844 63.039062 L 110.714844 106.117188 L 121.21875 111.894531 L 121.21875 70.917969 L 205.800781 118.726562 C 206.585938 119.25 207.113281 119.511719 207.898438 119.777344 L 207.898438 158.386719 C 210.527344 158.648438 212.890625 159.4375 215.253906 160.75 L 218.40625 162.589844 L 218.40625 119.511719 C 219.195312 119.25 219.71875 118.988281 220.507812 118.460938 L 257.808594 96.398438 L 257.808594 110.84375 C 257.808594 113.734375 260.171875 116.097656 263.058594 116.097656 C 265.949219 116.097656 268.3125 113.734375 268.3125 110.84375 L 268.3125 90.09375 L 305.085938 68.292969 L 305.085938 170.996094 C 305.085938 171.519531 304.824219 172.046875 304.296875 172.308594 L 271.203125 192.007812 L 278.820312 196.210938 C 278.820312 196.210938 279.082031 196.472656 279.082031 196.472656 C 279.871094 197 280.660156 197.523438 281.445312 198.3125 L 309.550781 181.503906 C 313.230469 179.402344 315.332031 175.460938 315.332031 171.257812 L 315.332031 63.039062 C 315.59375 58.835938 313.492188 54.898438 309.550781 52.796875 Z M 212.628906 11.292969 C 213.152344 11.03125 213.417969 11.03125 213.941406 11.292969 L 299.832031 59.363281 L 261.484375 81.953125 L 174.277344 32.570312 C 174.277344 32.570312 212.628906 11.292969 212.628906 11.292969 Z M 214.992188 109.53125 C 213.941406 110.320312 212.367188 110.320312 211.050781 109.53125 L 124.371094 60.414062 L 163.507812 38.613281 L 251.238281 88.253906 Z M 214.992188 109.53125 " fill-opacity="1" fill-rule="nonzero"/><path fill="#bee0ec" d="M 273.828125 205.40625 L 210.265625 169.945312 C 207.113281 168.105469 203.433594 168.105469 200.546875 169.945312 L 136.453125 205.40625 C 133.566406 207.242188 131.726562 210.394531 131.726562 213.808594 L 131.726562 289.195312 C 131.726562 292.609375 133.566406 296.023438 136.453125 297.601562 C 136.453125 297.601562 200.28125 335.160156 200.28125 335.160156 C 203.171875 337 207.113281 337 210.265625 335.160156 L 274.09375 297.601562 C 276.980469 295.761719 278.820312 292.609375 278.820312 289.195312 L 278.820312 213.808594 C 278.820312 210.394531 276.980469 207.242188 273.828125 205.40625 Z M 205.273438 179.402344 L 263.058594 211.445312 L 239.683594 225.105469 L 181.894531 192.273438 Z M 205.800781 245.066406 C 205.535156 245.332031 205.011719 245.332031 204.75 245.066406 L 146.171875 211.972656 L 171.128906 198.050781 L 229.4375 230.882812 Z M 142.234375 221.953125 C 142.234375 221.953125 199.757812 254.261719 200.019531 254.261719 L 200.019531 323.078125 L 142.234375 288.933594 Z M 210.527344 323.078125 L 210.527344 254.261719 C 210.789062 254.261719 234.167969 240.339844 234.167969 240.339844 L 234.167969 250.058594 C 234.167969 252.949219 236.53125 255.3125 239.421875 255.3125 C 242.308594 255.3125 244.671875 252.949219 244.671875 250.058594 L 244.671875 234.296875 L 268.3125 220.375 L 268.3125 288.933594 Z M 210.527344 323.078125 " fill-opacity="1" fill-rule="nonzero"/><g clip-path="url(#f2b67d1c97)"><path fill="#bee0ec" d="M 134.355469 189.644531 L 134.355469 177.300781 L 157.992188 164.167969 L 157.992188 181.503906 L 168.5 175.722656 L 168.5 156.285156 C 168.5 152.871094 166.660156 149.457031 163.507812 147.617188 L 99.945312 112.160156 C 96.792969 110.320312 93.113281 110.320312 90.226562 112.160156 L 26.136719 147.617188 C 23.246094 149.195312 21.40625 152.609375 21.40625 156.023438 L 21.40625 231.410156 C 21.40625 234.824219 23.246094 238.238281 26.136719 239.8125 C 26.136719 239.8125 89.964844 277.375 89.964844 277.375 C 92.851562 279.214844 96.792969 279.214844 99.945312 277.375 L 121.21875 264.765625 L 121.21875 252.683594 L 100.207031 265.03125 L 100.207031 196.472656 C 100.46875 196.472656 100.46875 196.210938 100.734375 196.210938 L 123.847656 183.339844 L 123.847656 189.644531 C 123.847656 192.535156 126.210938 194.898438 129.101562 194.898438 C 131.988281 194.898438 134.355469 192.535156 134.355469 189.644531 Z M 94.953125 121.351562 L 154.054688 154.183594 L 129.363281 167.84375 L 71.3125 134.484375 Z M 31.914062 162.589844 L 88.914062 196.210938 C 89.175781 196.472656 89.4375 196.472656 89.699219 196.472656 L 89.699219 265.292969 L 31.914062 231.144531 Z M 95.480469 187.28125 C 95.214844 187.542969 94.691406 187.542969 94.429688 187.28125 L 37.167969 153.398438 L 60.542969 140.265625 L 118.855469 173.886719 Z M 95.480469 187.28125 " fill-opacity="1" fill-rule="nonzero"/></g><g clip-path="url(#bc68b16a18)"><g clip-path="url(#64aaa6381e)"><g transform="matrix(1, 0, 0, 1, 248, 121)"><g clip-path="url(#d08dc5a71f)"><g clip-path="url(#dd362d6cf8)"><g clip-path="url(#a610f33b5e)"><g clip-path="url(#eab5f7ca64)"><path fill="#bee0ec" d="M 17.609375 9.027344 C 17.609375 9.023438 17.523438 9.109375 17.523438 9.105469 C 17.527344 9.113281 17.53125 9.113281 17.535156 9.113281 C 17.535156 9.117188 17.609375 9.023438 17.609375 9.027344 Z M 14.496094 12.632812 C 14.527344 12.582031 14.363281 12.886719 14.394531 12.871094 C 14.425781 12.859375 14.453125 12.847656 14.480469 12.832031 C 14.453125 12.871094 13.566406 13.898438 13.59375 13.894531 C 13.546875 13.859375 13.550781 13.804688 13.539062 13.691406 C 13.613281 13.792969 13.34375 13.601562 13.082031 13.605469 C 13.078125 13.582031 14.21875 12.191406 14.25 12.152344 C 14.542969 12.121094 14.996094 12.089844 15.222656 11.714844 C 15.179688 11.789062 15.234375 11.824219 15.25 11.875 C 15.332031 11.828125 14.589844 12.691406 14.570312 12.679688 C 14.605469 12.632812 14.589844 12.589844 14.496094 12.632812 Z M 17.648438 9.710938 C 17.761719 9.5 17.679688 9.617188 17.789062 9.542969 C 17.671875 9.589844 21.992188 4.296875 22.160156 4.207031 C 22.707031 3.5625 23.871094 3.464844 24.851562 4.179688 C 24.730469 4.265625 26.027344 5.34375 26.015625 5.195312 C 26.164062 5.113281 26.066406 5.144531 26.074219 5.265625 C 26.234375 5.359375 26.101562 5.460938 26.078125 5.40625 C 25.90625 5.59375 24.769531 4.394531 24.753906 4.292969 C 24.523438 4.425781 24.5625 4.4375 24.515625 4.476562 C 24.789062 4.308594 24.644531 4.449219 24.578125 4.414062 C 24.785156 4.34375 24.578125 4.234375 24.761719 4.019531 C 24.605469 4.136719 24.492188 4.332031 24.445312 4.347656 C 23.808594 3.804688 22.878906 3.898438 22.257812 4.585938 C 22.222656 4.546875 18.371094 9.460938 18.328125 9.414062 C 18.054688 9.351562 18.09375 9.4375 17.648438 9.710938 Z M 5.414062 22.875 C 5.523438 22.722656 7.601562 20.222656 7.699219 20.175781 C 7.65625 20.199219 7.707031 20.09375 7.875 19.9375 C 7.78125 20.054688 9.03125 18.421875 9.113281 18.394531 C 9.023438 18.539062 9.046875 18.628906 9.0625 18.460938 C 9.546875 18.417969 9.25 17.964844 9.585938 18.144531 C 9.578125 18.089844 9.507812 17.886719 9.613281 17.761719 C 9.445312 17.929688 9.683594 17.792969 9.679688 17.710938 C 9.671875 17.863281 9.769531 17.59375 9.898438 17.484375 C 10.167969 17.511719 9.964844 17.683594 10.042969 17.769531 C 10.226562 17.695312 10.082031 17.574219 10.257812 17.386719 C 10.113281 17.496094 9.964844 17.542969 9.921875 17.558594 C 9.875 17.105469 10.378906 17.234375 10.507812 17.050781 C 10.480469 17.023438 10.964844 17.144531 10.933594 17.109375 C 10.820312 17.167969 11.074219 16.863281 11.015625 16.886719 C 10.9375 16.703125 10.792969 17.148438 10.507812 17 C 10.433594 16.792969 10.761719 16.742188 10.855469 16.730469 C 10.691406 16.921875 10.796875 16.898438 10.835938 16.855469 C 10.855469 16.789062 10.835938 16.761719 10.773438 16.878906 C 10.839844 16.722656 11 16.609375 10.6875 16.679688 C 11.042969 16.617188 11.234375 16.546875 11.300781 16.585938 C 11.363281 16.5625 5.820312 23.203125 5.914062 23.199219 C 5.996094 23.207031 5.796875 23.367188 5.683594 23.480469 C 5.886719 23.324219 5.253906 23.128906 5.332031 22.957031 C 5.347656 22.972656 5.566406 22.757812 5.414062 22.875 Z M 15.003906 13.390625 C 15.058594 13.308594 17.742188 10.070312 17.789062 10.046875 C 17.582031 10.082031 17.429688 10.0625 17.355469 10.003906 C 17.308594 10.0625 14.753906 13.097656 14.796875 13.085938 C 14.761719 13.242188 14.777344 13.378906 14.742188 13.417969 C 14.949219 13.324219 15.046875 13.285156 15.003906 13.390625 Z M 16.980469 10.671875 C 17.003906 10.523438 17.214844 10.417969 17.148438 10.265625 C 17.523438 10.316406 17.058594 10.527344 16.980469 10.671875 Z M 15.773438 10.574219 C 15.585938 10.683594 15.566406 10.652344 15.558594 10.582031 C 15.554688 10.585938 15.726562 10.375 15.730469 10.371094 C 15.734375 10.441406 15.75 10.5 15.773438 10.574219 Z M 10.664062 29.996094 C 10.972656 29.421875 8.742188 28.25 9.078125 28.121094 C 8.789062 28.21875 8.839844 28.050781 9.410156 27.75 C 8.996094 28.136719 8.714844 27.863281 9.078125 27.738281 C 8.710938 28.007812 9.042969 28.3125 8.972656 27.820312 C 9.472656 27.59375 9.199219 27.683594 9.289062 28.101562 C 9.222656 27.859375 9.121094 27.914062 9.4375 27.460938 C 8.925781 28.050781 11.464844 29.355469 11.390625 29.011719 C 11.46875 30.058594 12.691406 30.117188 13.136719 29.625 C 13.96875 29.132812 27.910156 11.835938 27.695312 11.703125 C 28.355469 11.53125 27.777344 12.050781 28.335938 11.359375 C 27.863281 11.71875 27.863281 11.558594 27.714844 11.589844 C 28.007812 11.558594 29.300781 10.277344 28.957031 10.488281 C 29.363281 9.703125 30.160156 8.304688 29.265625 7.53125 C 28.886719 7.695312 26.503906 5.578125 26.300781 5.632812 C 26.300781 5.390625 26.414062 5.292969 26.054688 5.898438 C 25.804688 5.539062 29.089844 7.792969 29.183594 7.289062 C 29.582031 8.683594 30.148438 9.867188 29.597656 10.453125 C 29.632812 10.222656 29.527344 10.152344 29.40625 10.644531 C 29.550781 10.214844 29.839844 10.027344 29.15625 10.285156 C 29.546875 10.039062 29.550781 10.203125 29.132812 10.476562 C 29.34375 10.414062 13.222656 29.667969 13.582031 29.722656 C 13.414062 30.339844 12.234375 30.050781 10.664062 29.996094 Z M 26.859375 14.382812 C 26.933594 13.976562 29.675781 10.929688 29.875 10.902344 C 29.636719 11.101562 29.546875 11.15625 29.746094 11.1875 C 29.621094 11.511719 29.351562 11.296875 29.53125 11.359375 C 29.277344 11.566406 29.34375 11.792969 29.070312 11.386719 C 29.222656 11.582031 29.269531 11.472656 29.5 12.035156 C 29.601562 11.671875 29.402344 11.5 29.558594 11.050781 C 29.375 11.390625 29.816406 11.339844 29.703125 11.003906 C 29.371094 11.195312 29.539062 11.300781 29.542969 11.398438 C 30.085938 11.242188 29.671875 11.503906 29.480469 11.429688 C 30.140625 11.324219 30.039062 11.355469 30.417969 10.703125 C 29.445312 10.570312 30.164062 10.144531 29.976562 9.804688 C 30.191406 9.769531 30.324219 9.835938 30.152344 9.847656 C 30.03125 9.703125 30.804688 9.574219 30.660156 9.398438 C 30.4375 9.445312 30.402344 9.375 30.277344 9.371094 C 30.25 8.5 29.976562 7.746094 29.203125 7.695312 C 28.945312 7.335938 26.628906 5.25 26.574219 4.851562 C 26.421875 5.269531 26.695312 5.304688 26.753906 5.15625 C 26.632812 4.921875 26.496094 4.8125 26.488281 5.210938 C 26.519531 4.921875 25.316406 3.726562 24.921875 3.75 C 24.042969 2.710938 22.570312 2.859375 21.558594 3.902344 C 21.6875 3.902344 17.609375 8.636719 17.871094 8.765625 C 18.027344 8.777344 17.65625 8.859375 17.449219 8.753906 C 17.570312 8.824219 17.152344 9.378906 16.785156 9.003906 C 16.871094 9.476562 16.785156 9.679688 16.984375 9.503906 C 17.058594 9.890625 16.609375 9.804688 17.101562 9.980469 C 16.738281 9.785156 17.085938 9.660156 16.980469 9.871094 C 16.613281 10.160156 16.472656 9.820312 16.378906 10.125 C 16.523438 10.136719 16.996094 10.089844 17.023438 10.007812 C 16.726562 10.078125 15.25 11.773438 15.34375 11.996094 C 15.257812 11.507812 15.316406 11.910156 15.113281 11.890625 C 15.492188 11.015625 16.292969 10.730469 16.394531 10.277344 C 16.566406 10.214844 16.09375 10.308594 15.855469 10.238281 C 16.042969 9.917969 16.046875 10.015625 15.980469 10.085938 C 16.117188 9.875 16.332031 10.097656 16.269531 10.121094 C 16.496094 9.78125 16.421875 9.777344 16.480469 9.636719 C 16.660156 9.628906 16.753906 9.695312 16.625 9.425781 C 16.351562 9.976562 16.074219 9.730469 16.15625 9.671875 C 16.511719 9.898438 16.183594 9.636719 16.066406 10.097656 C 16.433594 9.679688 21.492188 3.6875 21.234375 3.722656 C 22.027344 2.414062 24.253906 2.140625 25.605469 3.351562 C 25.390625 3.804688 29.578125 7.222656 29.777344 7 C 30.71875 8.101562 31.386719 9.683594 30.15625 11.027344 C 30.058594 10.917969 29.253906 12.210938 29.1875 12.554688 C 29.039062 12.617188 28.769531 12.351562 29.40625 12.367188 C 29.109375 12.085938 28.953125 12.496094 29.269531 12.488281 C 28.964844 12.46875 28.90625 12.277344 28.988281 12.496094 C 29.316406 12.5 28.777344 12.523438 28.988281 12.804688 C 29.097656 12.53125 28.972656 12.605469 29.117188 12.382812 C 28.789062 12.820312 28.882812 12.578125 28.273438 13.085938 C 28.210938 13.121094 28.601562 12.734375 28.511719 12.636719 C 28.074219 13.03125 27.296875 13.660156 27.066406 14.027344 C 27.164062 14.257812 27.164062 13.976562 26.859375 14.382812 Z M 28.289062 13.449219 C 28.296875 13.4375 27.871094 13.957031 27.878906 13.953125 C 27.933594 13.753906 28.117188 13.585938 28.289062 13.449219 Z M 6.789062 23.289062 C 6.898438 23.140625 6.457031 23.191406 6.550781 23.144531 C 6.445312 23.191406 11.230469 17.359375 11.378906 17.269531 C 11.285156 17.386719 11.339844 17.363281 11.417969 17.335938 C 11.308594 17.417969 11.222656 17.433594 11.230469 17.324219 C 11.371094 17.246094 11.480469 17.058594 11.484375 17.148438 C 11.476562 17.097656 11.402344 17.214844 11.507812 17.09375 C 11.507812 17.308594 11.703125 17.070312 11.695312 16.855469 C 11.5 16.988281 11.792969 16.699219 11.761719 16.738281 C 12.023438 16.59375 11.855469 16.730469 11.828125 16.726562 C 12.003906 16.652344 11.703125 16.929688 11.878906 16.742188 C 11.734375 16.851562 12.265625 16.652344 12.222656 16.667969 C 12.304688 16.648438 7.277344 22.800781 7.175781 22.867188 C 7.148438 22.839844 7.097656 22.710938 7.0625 22.679688 C 6.949219 22.78125 6.941406 22.863281 6.980469 22.898438 C 6.976562 22.867188 7.289062 22.730469 7.152344 22.917969 C 7.101562 22.847656 6.875 23.285156 6.921875 23.164062 C 6.761719 23.339844 7.003906 23.097656 6.789062 23.289062 Z M 8.648438 28.933594 C 8.601562 28.820312 7.640625 28.089844 7.679688 28.113281 C 7.640625 28.066406 7.613281 28.007812 7.652344 28 C 7.671875 28.085938 7.570312 27.984375 7.605469 28.027344 C 7.585938 28.042969 7.292969 27.828125 7.191406 27.671875 C 7.261719 27.566406 7.195312 27.402344 7.167969 27.597656 C 7.113281 27.511719 7.140625 27.648438 7.117188 27.574219 C 7.128906 27.652344 6.992188 27.527344 6.914062 27.410156 C 6.875 27.421875 6.925781 27.460938 6.9375 27.492188 C 7 27.496094 6.910156 27.480469 6.847656 27.402344 C 6.929688 27.464844 6.1875 26.910156 6.160156 26.804688 C 5.632812 26.40625 5.261719 25.851562 5.050781 25.277344 C 5.113281 25.335938 5.175781 25.417969 5.164062 25.441406 C 5.164062 25.089844 5.433594 25.023438 5.558594 24.835938 C 5.625 25.394531 5.992188 26.007812 6.484375 26.414062 C 6.453125 26.367188 8.207031 27.820312 8.265625 27.960938 C 8.152344 27.8125 8.183594 28.203125 8.109375 28.070312 C 8.226562 28.171875 8.414062 28.199219 8.53125 28.132812 C 8.496094 28.070312 9.042969 28.5 9.109375 28.625 C 8.996094 28.65625 8.945312 28.734375 8.625 28.746094 C 8.640625 28.726562 8.667969 28.714844 8.632812 28.710938 C 8.652344 28.785156 8.679688 28.839844 8.648438 28.933594 Z M 8.285156 27.917969 C 8.285156 27.914062 8.363281 27.980469 8.363281 27.984375 C 8.335938 28.015625 8.3125 28.046875 8.308594 28.078125 C 8.195312 28.007812 8.261719 27.96875 8.285156 27.917969 Z M 6.175781 24.367188 C 6.132812 24.261719 5.953125 24.511719 5.988281 24.53125 C 6.121094 24.261719 6.015625 23.949219 6.128906 23.664062 C 6.160156 23.726562 6.085938 23.605469 6.132812 23.628906 C 6.21875 23.8125 6.410156 23.84375 6.457031 23.632812 C 6.019531 24.304688 6.164062 25.265625 6.96875 25.988281 C 6.914062 25.910156 8.824219 27.492188 8.804688 27.421875 C 8.722656 27.566406 8.679688 27.664062 8.484375 27.566406 C 8.445312 27.578125 6.714844 26.167969 6.726562 26.195312 C 6.292969 25.789062 5.96875 25.230469 5.867188 24.605469 C 6.046875 24.582031 6.121094 24.441406 6.175781 24.367188 Z M 14.699219 13.28125 C 14.632812 13.761719 14.417969 13.847656 14.042969 14.121094 C 14.015625 14.109375 14 14.082031 14.007812 14.050781 C 13.996094 14.0625 14.65625 13.246094 14.664062 13.246094 C 14.652344 13.253906 14.726562 13.257812 14.699219 13.28125 Z M 13.097656 13.871094 C 13.097656 13.867188 12.867188 13.84375 12.871094 13.84375 C 12.867188 13.84375 12.992188 13.691406 12.996094 13.691406 C 13.003906 13.773438 13.039062 13.828125 13.097656 13.871094 Z M 12.242188 14.601562 C 12.25 14.59375 12.558594 14.21875 12.566406 14.214844 C 12.441406 14.371094 12.472656 14.523438 12.242188 14.601562 Z M 12.578125 14.199219 C 12.582031 14.191406 12.792969 13.933594 12.796875 13.929688 C 12.792969 13.933594 12.828125 14.023438 12.832031 14.019531 C 12.703125 14.078125 12.636719 14.128906 12.578125 14.199219 Z M 7.753906 20.046875 C 7.757812 20.046875 7.757812 20.050781 7.765625 20.054688 C 7.765625 20.054688 7.742188 20.058594 7.746094 20.058594 C 7.746094 20.058594 7.753906 20.046875 7.753906 20.046875 Z M 26.113281 15.160156 C 26.078125 15.203125 26.058594 15.25 26.058594 15.292969 C 26.035156 15.316406 26.003906 15.328125 25.972656 15.332031 C 25.96875 15.335938 26.121094 15.152344 26.113281 15.160156 Z M 14.234375 30.453125 C 14.554688 30.054688 14.453125 30.199219 14.714844 30.0625 C 14.425781 30.203125 14.292969 29.894531 14.707031 29.640625 C 14.507812 30.019531 14.414062 29.980469 14.695312 29.925781 C 14.382812 30.15625 27.519531 14.394531 27.558594 14.113281 C 27.625 13.808594 27.433594 14.164062 27.039062 14.519531 C 27.035156 14.390625 26.910156 14.714844 27.214844 14.386719 C 26.742188 14.832031 26.984375 14.542969 26.992188 14.351562 C 26.445312 14.730469 26.71875 14.679688 26.628906 14.789062 C 27.09375 14.273438 26.816406 14.492188 26.671875 14.28125 C 27.164062 14.054688 26.070312 15.171875 26.570312 14.664062 C 26.167969 14.964844 26.285156 15.035156 26.171875 15.082031 C 26.320312 15.082031 26.320312 15.101562 26 15.230469 C 25.933594 15.171875 26.542969 14.945312 26.464844 14.871094 C 26.152344 15.105469 26.28125 15.125 26.097656 15.222656 C 26.082031 15.363281 26.492188 15.519531 25.824219 16.335938 C 25.726562 16.078125 25.976562 16.058594 26 15.679688 C 25.597656 15.960938 25.859375 15.785156 25.886719 15.519531 C 25.953125 15.375 14.113281 29.640625 13.9375 29.957031 C 13.371094 30.617188 12.140625 30.511719 10.570312 29.882812 C 10.898438 29.632812 10.507812 29.417969 10.144531 29.652344 C 10.308594 29.578125 9.988281 29.824219 10.238281 29.789062 C 10.425781 29.492188 9.953125 29.828125 9.542969 29.867188 C 10.167969 29.34375 9.851562 29.769531 10.171875 29.320312 C 10.050781 29.566406 8.917969 28.976562 9.324219 28.566406 C 9.171875 29.03125 8.824219 29.160156 9.320312 29.191406 C 8.988281 29.222656 9.488281 28.914062 9.246094 29.160156 C 8.859375 29.472656 9.074219 29.144531 8.902344 29.269531 C 8.953125 29.378906 9.5 29.136719 9.542969 29.078125 C 9.132812 29.308594 9.621094 30.152344 9.609375 30.300781 C 9.785156 29.914062 9.875 30.023438 9.632812 30.125 C 10.101562 29.671875 10.074219 29.777344 10.230469 29.8125 C 10.472656 29.714844 10.148438 29.992188 9.832031 30.082031 C 10.253906 29.6875 10.257812 30.394531 10.132812 30.496094 C 10.5625 30.34375 10.800781 30.472656 10.851562 30.621094 C 11.144531 30.285156 10.964844 30.398438 11.007812 30.363281 C 11.296875 30.320312 11.335938 30.40625 11.253906 30.351562 C 11.898438 31.648438 14.011719 30.929688 14.234375 30.453125 Z M 11.195312 30.273438 C 11.195312 30.261719 11.441406 30.578125 11.445312 30.578125 C 11.441406 30.578125 11.0625 30.484375 11.066406 30.480469 C 11.066406 30.488281 11.199219 30.265625 11.195312 30.273438 Z M 13.695312 30.800781 C 13.996094 30.539062 14.046875 30.144531 14.460938 30.09375 C 14.171875 30.296875 13.9375 30.664062 13.695312 30.800781 Z M 5.515625 23.414062 C 5.519531 23.609375 5.261719 23.828125 4.980469 23.992188 C 5.007812 23.714844 5.089844 23.453125 5.222656 23.210938 C 5.355469 23.230469 5.492188 23.234375 5.515625 23.414062 Z M 10.367188 16.878906 C 10.414062 16.933594 10.417969 17.011719 10.34375 17.070312 C 10.320312 17.042969 10.289062 17.023438 10.257812 17.011719 C 10.253906 17.015625 10.371094 16.875 10.367188 16.878906 Z M 12.164062 14.703125 C 12.722656 14.972656 11.78125 15.066406 11.757812 15.421875 C 11.738281 15.425781 11.730469 15.417969 11.746094 15.410156 C 11.703125 15.355469 11.632812 15.285156 11.726562 15.421875 C 11.714844 15.429688 11.726562 15.441406 11.722656 15.414062 C 11.746094 15.414062 11.738281 15.425781 11.75 15.457031 C 11.746094 15.464844 11.746094 15.492188 11.765625 15.5 C 11.75 15.503906 11.773438 15.472656 11.757812 15.425781 C 11.730469 15.433594 11.738281 15.425781 11.738281 15.425781 C 11.871094 15.382812 11.929688 15.691406 11.910156 15.722656 C 11.679688 15.839844 11.625 15.582031 11.5 15.5 C 11.484375 15.515625 12.191406 14.675781 12.164062 14.703125 Z M 12.164062 14.703125 " fill-opacity="1" fill-rule="nonzero"/></g></g></g></g></g></g></g><g clip-path="url(#51e9987049)"><g clip-path="url(#adf8f55c02)"><g transform="matrix(1, 0, 0, 1, 231, 264)"><g clip-path="url(#597e36d128)"><g clip-path="url(#b8f2e48740)"><g clip-path="url(#4bfc7c335e)"><g clip-path="url(#590a7a24eb)"><path fill="#bee0ec" d="M 11.816406 6.046875 C 11.816406 6.046875 11.757812 6.101562 11.757812 6.101562 C 11.761719 6.105469 11.761719 6.105469 11.765625 6.109375 C 11.765625 6.109375 11.816406 6.046875 11.816406 6.046875 Z M 9.722656 8.476562 C 9.746094 8.4375 9.632812 8.644531 9.65625 8.632812 C 9.675781 8.625 9.695312 8.617188 9.714844 8.605469 C 9.695312 8.632812 9.097656 9.324219 9.117188 9.320312 C 9.082031 9.296875 9.085938 9.261719 9.078125 9.183594 C 9.128906 9.253906 8.945312 9.125 8.773438 9.128906 C 8.769531 9.113281 9.535156 8.179688 9.558594 8.148438 C 9.753906 8.128906 10.058594 8.109375 10.210938 7.855469 C 10.183594 7.90625 10.21875 7.929688 10.230469 7.964844 C 10.285156 7.929688 9.785156 8.511719 9.773438 8.507812 C 9.796875 8.472656 9.785156 8.445312 9.722656 8.476562 Z M 11.84375 6.507812 C 11.917969 6.367188 11.863281 6.445312 11.9375 6.394531 C 11.859375 6.425781 14.765625 2.867188 14.878906 2.804688 C 15.246094 2.371094 16.027344 2.308594 16.6875 2.785156 C 16.609375 2.847656 17.480469 3.570312 17.472656 3.472656 C 17.570312 3.417969 17.503906 3.4375 17.511719 3.515625 C 17.617188 3.582031 17.527344 3.648438 17.511719 3.613281 C 17.398438 3.738281 16.632812 2.933594 16.621094 2.863281 C 16.464844 2.953125 16.492188 2.960938 16.460938 2.988281 C 16.644531 2.875 16.546875 2.96875 16.503906 2.945312 C 16.644531 2.898438 16.503906 2.824219 16.628906 2.679688 C 16.523438 2.757812 16.445312 2.890625 16.414062 2.898438 C 15.988281 2.535156 15.363281 2.597656 14.945312 3.0625 C 14.917969 3.035156 12.328125 6.339844 12.300781 6.308594 C 12.117188 6.265625 12.144531 6.324219 11.84375 6.507812 Z M 3.613281 15.363281 C 3.6875 15.261719 5.085938 13.578125 5.152344 13.546875 C 5.121094 13.5625 5.15625 13.492188 5.269531 13.386719 C 5.207031 13.46875 6.046875 12.367188 6.101562 12.347656 C 6.042969 12.445312 6.058594 12.507812 6.066406 12.394531 C 6.394531 12.367188 6.195312 12.0625 6.421875 12.179688 C 6.414062 12.144531 6.367188 12.007812 6.4375 11.925781 C 6.324219 12.035156 6.488281 11.945312 6.484375 11.890625 C 6.476562 11.992188 6.542969 11.8125 6.628906 11.738281 C 6.8125 11.757812 6.675781 11.871094 6.726562 11.929688 C 6.851562 11.878906 6.753906 11.796875 6.871094 11.671875 C 6.773438 11.746094 6.675781 11.777344 6.644531 11.789062 C 6.617188 11.484375 6.953125 11.566406 7.042969 11.445312 C 7.023438 11.425781 7.347656 11.507812 7.324219 11.484375 C 7.25 11.523438 7.417969 11.320312 7.382812 11.332031 C 7.328125 11.210938 7.234375 11.511719 7.042969 11.410156 C 6.992188 11.273438 7.210938 11.238281 7.273438 11.230469 C 7.164062 11.359375 7.234375 11.34375 7.261719 11.316406 C 7.273438 11.269531 7.261719 11.25 7.21875 11.328125 C 7.265625 11.226562 7.371094 11.148438 7.160156 11.195312 C 7.402344 11.152344 7.527344 11.109375 7.574219 11.132812 C 7.617188 11.117188 3.886719 15.585938 3.953125 15.582031 C 4.003906 15.585938 3.871094 15.695312 3.796875 15.769531 C 3.929688 15.664062 3.507812 15.53125 3.558594 15.417969 C 3.566406 15.429688 3.71875 15.285156 3.613281 15.363281 Z M 10.066406 8.984375 C 10.101562 8.929688 11.90625 6.75 11.9375 6.734375 C 11.800781 6.757812 11.695312 6.746094 11.648438 6.703125 C 11.613281 6.746094 9.894531 8.789062 9.925781 8.777344 C 9.902344 8.882812 9.910156 8.976562 9.890625 9 C 10.027344 8.9375 10.09375 8.914062 10.066406 8.984375 Z M 11.394531 7.152344 C 11.410156 7.054688 11.550781 6.984375 11.503906 6.882812 C 11.761719 6.914062 11.445312 7.058594 11.394531 7.152344 Z M 10.582031 7.089844 C 10.457031 7.160156 10.441406 7.140625 10.4375 7.09375 C 10.4375 7.097656 10.550781 6.957031 10.554688 6.953125 C 10.554688 7 10.566406 7.039062 10.582031 7.089844 Z M 7.144531 20.152344 C 7.351562 19.765625 5.851562 18.980469 6.078125 18.890625 C 5.882812 18.957031 5.917969 18.84375 6.300781 18.644531 C 6.023438 18.902344 5.832031 18.71875 6.078125 18.632812 C 5.832031 18.816406 6.054688 19.019531 6.007812 18.6875 C 6.34375 18.539062 6.160156 18.597656 6.21875 18.878906 C 6.175781 18.714844 6.109375 18.75 6.320312 18.449219 C 5.976562 18.84375 7.683594 19.722656 7.632812 19.492188 C 7.6875 20.195312 8.507812 20.234375 8.808594 19.90625 C 9.367188 19.570312 18.746094 7.9375 18.601562 7.847656 C 19.046875 7.734375 18.65625 8.082031 19.03125 7.617188 C 18.714844 7.859375 18.714844 7.75 18.613281 7.773438 C 18.8125 7.75 19.679688 6.890625 19.449219 7.03125 C 19.722656 6.503906 20.257812 5.5625 19.65625 5.042969 C 19.402344 5.152344 17.800781 3.726562 17.664062 3.765625 C 17.664062 3.601562 17.738281 3.539062 17.5 3.945312 C 17.328125 3.703125 19.539062 5.21875 19.601562 4.878906 C 19.871094 5.816406 20.25 6.613281 19.878906 7.007812 C 19.902344 6.851562 19.832031 6.804688 19.753906 7.136719 C 19.847656 6.847656 20.042969 6.71875 19.582031 6.894531 C 19.847656 6.730469 19.847656 6.839844 19.566406 7.023438 C 19.710938 6.980469 8.867188 19.933594 9.109375 19.96875 C 8.996094 20.382812 8.203125 20.191406 7.144531 20.152344 Z M 18.039062 9.648438 C 18.089844 9.375 19.933594 7.328125 20.066406 7.308594 C 19.90625 7.441406 19.84375 7.480469 19.980469 7.5 C 19.894531 7.71875 19.714844 7.574219 19.835938 7.617188 C 19.667969 7.757812 19.710938 7.910156 19.527344 7.636719 C 19.628906 7.765625 19.660156 7.695312 19.816406 8.070312 C 19.882812 7.828125 19.75 7.710938 19.855469 7.410156 C 19.730469 7.640625 20.027344 7.605469 19.953125 7.378906 C 19.730469 7.507812 19.84375 7.578125 19.84375 7.644531 C 20.207031 7.539062 19.929688 7.714844 19.800781 7.664062 C 20.246094 7.59375 20.175781 7.613281 20.433594 7.175781 C 19.777344 7.085938 20.261719 6.800781 20.136719 6.570312 C 20.28125 6.546875 20.371094 6.589844 20.253906 6.601562 C 20.171875 6.503906 20.695312 6.417969 20.597656 6.300781 C 20.445312 6.332031 20.421875 6.28125 20.335938 6.28125 C 20.320312 5.695312 20.136719 5.1875 19.617188 5.152344 C 19.441406 4.910156 17.882812 3.507812 17.847656 3.242188 C 17.746094 3.519531 17.929688 3.542969 17.964844 3.445312 C 17.886719 3.285156 17.796875 3.214844 17.789062 3.480469 C 17.808594 3.289062 17 2.484375 16.734375 2.5 C 16.144531 1.800781 15.152344 1.902344 14.472656 2.601562 C 14.5625 2.601562 11.816406 5.785156 11.992188 5.875 C 12.097656 5.882812 11.847656 5.9375 11.707031 5.863281 C 11.789062 5.910156 11.511719 6.285156 11.261719 6.035156 C 11.320312 6.351562 11.261719 6.488281 11.394531 6.367188 C 11.445312 6.628906 11.144531 6.574219 11.476562 6.6875 C 11.230469 6.558594 11.464844 6.472656 11.394531 6.617188 C 11.148438 6.808594 11.050781 6.582031 10.988281 6.789062 C 11.085938 6.792969 11.402344 6.761719 11.421875 6.707031 C 11.222656 6.753906 10.230469 7.894531 10.292969 8.046875 C 10.234375 7.714844 10.273438 7.988281 10.136719 7.972656 C 10.394531 7.386719 10.929688 7.195312 11 6.890625 C 11.113281 6.847656 10.796875 6.910156 10.636719 6.863281 C 10.765625 6.648438 10.765625 6.714844 10.722656 6.761719 C 10.8125 6.617188 10.957031 6.769531 10.914062 6.785156 C 11.066406 6.554688 11.019531 6.550781 11.058594 6.460938 C 11.179688 6.453125 11.242188 6.496094 11.15625 6.316406 C 10.96875 6.6875 10.785156 6.519531 10.839844 6.480469 C 11.078125 6.632812 10.859375 6.457031 10.777344 6.769531 C 11.027344 6.488281 14.429688 2.457031 14.257812 2.480469 C 14.789062 1.601562 16.285156 1.414062 17.195312 2.230469 C 17.050781 2.535156 19.867188 4.832031 20 4.6875 C 20.632812 5.425781 21.085938 6.492188 20.253906 7.394531 C 20.191406 7.320312 19.648438 8.191406 19.605469 8.421875 C 19.503906 8.464844 19.324219 8.285156 19.75 8.296875 C 19.554688 8.105469 19.445312 8.382812 19.660156 8.375 C 19.453125 8.363281 19.417969 8.234375 19.472656 8.382812 C 19.691406 8.382812 19.328125 8.398438 19.46875 8.589844 C 19.542969 8.40625 19.460938 8.453125 19.558594 8.308594 C 19.335938 8.597656 19.398438 8.4375 18.992188 8.777344 C 18.945312 8.800781 19.210938 8.542969 19.152344 8.476562 C 18.855469 8.742188 18.332031 9.164062 18.175781 9.414062 C 18.242188 9.566406 18.242188 9.378906 18.039062 9.652344 Z M 19 9.023438 C 19.007812 9.015625 18.71875 9.363281 18.726562 9.363281 C 18.761719 9.226562 18.886719 9.113281 19 9.023438 Z M 4.539062 15.640625 C 4.613281 15.542969 4.316406 15.578125 4.378906 15.546875 C 4.308594 15.578125 7.527344 11.652344 7.625 11.59375 C 7.5625 11.671875 7.597656 11.65625 7.652344 11.636719 C 7.578125 11.691406 7.523438 11.703125 7.527344 11.628906 C 7.621094 11.578125 7.695312 11.449219 7.695312 11.511719 C 7.691406 11.476562 7.644531 11.554688 7.714844 11.476562 C 7.714844 11.617188 7.84375 11.460938 7.839844 11.3125 C 7.707031 11.402344 7.902344 11.207031 7.882812 11.234375 C 8.0625 11.140625 7.945312 11.230469 7.925781 11.226562 C 8.046875 11.179688 7.84375 11.363281 7.960938 11.238281 C 7.863281 11.3125 8.222656 11.179688 8.195312 11.1875 C 8.25 11.175781 4.867188 15.3125 4.800781 15.355469 C 4.78125 15.339844 4.746094 15.253906 4.722656 15.230469 C 4.644531 15.300781 4.640625 15.355469 4.667969 15.378906 C 4.664062 15.355469 4.875 15.265625 4.78125 15.390625 C 4.75 15.34375 4.597656 15.640625 4.628906 15.558594 C 4.519531 15.675781 4.683594 15.511719 4.539062 15.640625 Z M 5.789062 19.4375 C 5.757812 19.363281 5.109375 18.871094 5.136719 18.886719 C 5.109375 18.855469 5.09375 18.8125 5.121094 18.808594 C 5.132812 18.871094 5.0625 18.796875 5.085938 18.828125 C 5.074219 18.839844 4.878906 18.695312 4.808594 18.589844 C 4.855469 18.519531 4.8125 18.40625 4.792969 18.539062 C 4.757812 18.484375 4.777344 18.574219 4.761719 18.523438 C 4.769531 18.578125 4.675781 18.492188 4.625 18.414062 C 4.59375 18.421875 4.628906 18.449219 4.640625 18.46875 C 4.683594 18.472656 4.621094 18.460938 4.578125 18.410156 C 4.632812 18.449219 4.132812 18.078125 4.117188 18.003906 C 3.761719 17.738281 3.511719 17.367188 3.367188 16.980469 C 3.410156 17.019531 3.453125 17.074219 3.445312 17.089844 C 3.445312 16.855469 3.625 16.808594 3.710938 16.679688 C 3.757812 17.058594 4.003906 17.472656 4.332031 17.746094 C 4.3125 17.710938 5.492188 18.691406 5.53125 18.785156 C 5.457031 18.683594 5.476562 18.945312 5.425781 18.859375 C 5.507812 18.925781 5.628906 18.945312 5.710938 18.898438 C 5.6875 18.855469 6.054688 19.148438 6.097656 19.230469 C 6.023438 19.25 5.988281 19.304688 5.773438 19.3125 C 5.785156 19.296875 5.804688 19.292969 5.777344 19.289062 C 5.792969 19.339844 5.8125 19.375 5.789062 19.4375 Z M 5.542969 18.753906 C 5.542969 18.753906 5.597656 18.796875 5.597656 18.796875 C 5.578125 18.820312 5.5625 18.84375 5.5625 18.863281 C 5.484375 18.816406 5.527344 18.789062 5.542969 18.753906 Z M 4.128906 16.367188 C 4.097656 16.296875 3.976562 16.464844 4 16.476562 C 4.089844 16.296875 4.019531 16.085938 4.09375 15.894531 C 4.117188 15.933594 4.066406 15.855469 4.097656 15.871094 C 4.15625 15.992188 4.285156 16.015625 4.316406 15.875 C 4.019531 16.324219 4.117188 16.972656 4.660156 17.457031 C 4.625 17.40625 5.910156 18.46875 5.894531 18.421875 C 5.839844 18.519531 5.808594 18.582031 5.679688 18.519531 C 5.652344 18.527344 4.488281 17.578125 4.496094 17.597656 C 4.203125 17.324219 3.984375 16.945312 3.917969 16.527344 C 4.039062 16.511719 4.089844 16.417969 4.128906 16.367188 Z M 9.859375 8.910156 C 9.816406 9.234375 9.671875 9.289062 9.417969 9.476562 C 9.398438 9.464844 9.390625 9.449219 9.394531 9.425781 C 9.386719 9.4375 9.828125 8.886719 9.835938 8.886719 C 9.828125 8.890625 9.878906 8.894531 9.859375 8.910156 Z M 8.78125 9.308594 C 8.78125 9.304688 8.628906 9.289062 8.628906 9.289062 C 8.628906 9.289062 8.710938 9.1875 8.710938 9.1875 C 8.71875 9.242188 8.742188 9.277344 8.78125 9.308594 Z M 8.207031 9.796875 C 8.210938 9.792969 8.421875 9.539062 8.425781 9.539062 C 8.339844 9.644531 8.363281 9.746094 8.207031 9.796875 Z M 8.433594 9.527344 C 8.433594 9.523438 8.578125 9.347656 8.582031 9.347656 C 8.578125 9.347656 8.597656 9.410156 8.601562 9.40625 C 8.519531 9.445312 8.472656 9.480469 8.429688 9.527344 Z M 5.1875 13.460938 C 5.191406 13.460938 5.191406 13.464844 5.195312 13.464844 C 5.195312 13.464844 5.179688 13.46875 5.179688 13.46875 C 5.179688 13.46875 5.1875 13.460938 5.1875 13.460938 Z M 17.539062 10.171875 C 17.511719 10.203125 17.5 10.234375 17.5 10.261719 C 17.484375 10.277344 17.464844 10.285156 17.441406 10.289062 C 17.441406 10.292969 17.542969 10.167969 17.539062 10.171875 Z M 9.546875 20.460938 C 9.761719 20.191406 9.691406 20.289062 9.871094 20.195312 C 9.675781 20.292969 9.585938 20.085938 9.863281 19.914062 C 9.730469 20.167969 9.667969 20.144531 9.855469 20.105469 C 9.648438 20.261719 18.484375 9.660156 18.511719 9.46875 C 18.554688 9.265625 18.425781 9.503906 18.160156 9.742188 C 18.15625 9.65625 18.074219 9.875 18.277344 9.65625 C 17.960938 9.953125 18.121094 9.757812 18.128906 9.628906 C 17.757812 9.886719 17.945312 9.847656 17.882812 9.925781 C 18.199219 9.578125 18.011719 9.726562 17.914062 9.582031 C 18.246094 9.429688 17.507812 10.179688 17.84375 9.839844 C 17.574219 10.042969 17.652344 10.089844 17.578125 10.121094 C 17.675781 10.121094 17.675781 10.136719 17.460938 10.222656 C 17.414062 10.179688 17.828125 10.027344 17.773438 9.980469 C 17.5625 10.136719 17.648438 10.148438 17.527344 10.214844 C 17.515625 10.308594 17.789062 10.414062 17.34375 10.964844 C 17.277344 10.792969 17.445312 10.777344 17.460938 10.523438 C 17.191406 10.710938 17.367188 10.59375 17.382812 10.414062 C 17.429688 10.316406 9.464844 19.914062 9.347656 20.128906 C 8.964844 20.570312 8.140625 20.5 7.082031 20.078125 C 7.300781 19.90625 7.039062 19.765625 6.796875 19.921875 C 6.90625 19.871094 6.691406 20.039062 6.859375 20.015625 C 6.984375 19.816406 6.667969 20.039062 6.390625 20.066406 C 6.8125 19.714844 6.601562 20 6.8125 19.699219 C 6.734375 19.863281 5.96875 19.46875 6.242188 19.191406 C 6.140625 19.503906 5.90625 19.589844 6.242188 19.609375 C 6.019531 19.632812 6.355469 19.425781 6.191406 19.589844 C 5.929688 19.800781 6.078125 19.582031 5.960938 19.664062 C 5.996094 19.738281 6.359375 19.574219 6.390625 19.535156 C 6.117188 19.691406 6.445312 20.257812 6.433594 20.355469 C 6.554688 20.097656 6.613281 20.171875 6.449219 20.238281 C 6.765625 19.933594 6.75 20.003906 6.851562 20.03125 C 7.015625 19.964844 6.796875 20.148438 6.585938 20.210938 C 6.871094 19.945312 6.871094 20.421875 6.789062 20.488281 C 7.074219 20.386719 7.238281 20.476562 7.273438 20.574219 C 7.46875 20.347656 7.347656 20.425781 7.375 20.402344 C 7.570312 20.371094 7.597656 20.429688 7.542969 20.390625 C 7.976562 21.265625 9.394531 20.78125 9.546875 20.460938 Z M 7.503906 20.339844 C 7.503906 20.332031 7.667969 20.542969 7.671875 20.546875 C 7.667969 20.542969 7.410156 20.480469 7.414062 20.480469 C 7.414062 20.484375 7.503906 20.332031 7.503906 20.339844 Z M 9.183594 20.695312 C 9.386719 20.519531 9.421875 20.253906 9.699219 20.21875 C 9.503906 20.355469 9.347656 20.601562 9.183594 20.695312 Z M 3.683594 15.726562 C 3.683594 15.855469 3.511719 16.003906 3.320312 16.113281 C 3.339844 15.925781 3.394531 15.753906 3.484375 15.589844 C 3.574219 15.601562 3.667969 15.605469 3.683594 15.726562 Z M 6.945312 11.332031 C 6.976562 11.367188 6.980469 11.417969 6.929688 11.457031 C 6.914062 11.441406 6.894531 11.425781 6.871094 11.417969 C 6.871094 11.421875 6.949219 11.328125 6.945312 11.332031 Z M 8.15625 9.867188 C 8.53125 10.046875 7.898438 10.109375 7.878906 10.347656 C 7.867188 10.351562 7.863281 10.347656 7.875 10.34375 C 7.84375 10.304688 7.796875 10.257812 7.859375 10.351562 C 7.851562 10.355469 7.859375 10.363281 7.855469 10.34375 C 7.875 10.34375 7.867188 10.351562 7.875 10.371094 C 7.875 10.378906 7.875 10.398438 7.886719 10.402344 C 7.875 10.40625 7.890625 10.382812 7.878906 10.351562 C 7.863281 10.355469 7.867188 10.355469 7.867188 10.351562 C 7.957031 10.324219 7.996094 10.53125 7.984375 10.550781 C 7.828125 10.632812 7.792969 10.457031 7.707031 10.402344 C 7.695312 10.410156 8.171875 9.847656 8.15625 9.867188 Z M 8.15625 9.867188 " fill-opacity="1" fill-rule="nonzero"/></g></g></g></g></g></g></g><g clip-path="url(#2360029ed2)"><g clip-path="url(#ee2e50a15b)"><g transform="matrix(1, 0, 0, 1, 121, 200)"><g clip-path="url(#1500282b9e)"><g clip-path="url(#05ba30e018)"><g clip-path="url(#76b1e5a723)"><g clip-path="url(#dc4c7cf7ea)"><path fill="#bee0ec" d="M 13.355469 6.851562 C 13.359375 6.847656 13.296875 6.910156 13.296875 6.910156 C 13.296875 6.914062 13.300781 6.914062 13.304688 6.914062 C 13.304688 6.917969 13.359375 6.847656 13.355469 6.851562 Z M 11.085938 9.480469 C 11.109375 9.441406 10.988281 9.664062 11.011719 9.65625 C 11.035156 9.648438 11.058594 9.636719 11.078125 9.625 C 11.054688 9.65625 10.410156 10.40625 10.429688 10.398438 C 10.394531 10.375 10.398438 10.335938 10.390625 10.253906 C 10.441406 10.328125 10.246094 10.1875 10.054688 10.191406 C 10.054688 10.175781 10.886719 9.160156 10.910156 9.128906 C 11.121094 9.109375 11.453125 9.085938 11.617188 8.8125 C 11.585938 8.863281 11.625 8.890625 11.640625 8.929688 C 11.699219 8.894531 11.15625 9.523438 11.140625 9.515625 C 11.167969 9.480469 11.15625 9.449219 11.085938 9.480469 Z M 13.386719 7.347656 C 13.46875 7.195312 13.410156 7.28125 13.492188 7.226562 C 13.402344 7.261719 16.554688 3.402344 16.675781 3.332031 C 17.074219 2.863281 17.925781 2.792969 18.640625 3.3125 C 18.554688 3.378906 19.5 4.164062 19.488281 4.054688 C 19.597656 3.996094 19.527344 4.019531 19.53125 4.105469 C 19.652344 4.175781 19.554688 4.25 19.535156 4.210938 C 19.410156 4.347656 18.582031 3.472656 18.570312 3.398438 C 18.402344 3.496094 18.429688 3.503906 18.394531 3.53125 C 18.59375 3.410156 18.488281 3.511719 18.441406 3.484375 C 18.59375 3.4375 18.441406 3.355469 18.574219 3.199219 C 18.460938 3.285156 18.378906 3.425781 18.34375 3.4375 C 17.878906 3.042969 17.203125 3.109375 16.75 3.613281 C 16.722656 3.582031 13.914062 7.167969 13.882812 7.132812 C 13.683594 7.085938 13.710938 7.148438 13.386719 7.347656 Z M 4.460938 16.953125 C 4.542969 16.839844 6.058594 15.019531 6.128906 14.984375 C 6.097656 15 6.136719 14.925781 6.257812 14.808594 C 6.1875 14.894531 7.101562 13.703125 7.160156 13.683594 C 7.09375 13.789062 7.113281 13.855469 7.125 13.730469 C 7.476562 13.703125 7.261719 13.371094 7.507812 13.5 C 7.5 13.460938 7.449219 13.3125 7.527344 13.222656 C 7.402344 13.34375 7.578125 13.242188 7.574219 13.1875 C 7.566406 13.296875 7.640625 13.097656 7.734375 13.019531 C 7.929688 13.039062 7.785156 13.164062 7.839844 13.226562 C 7.972656 13.171875 7.867188 13.085938 7.996094 12.949219 C 7.890625 13.027344 7.78125 13.0625 7.75 13.074219 C 7.71875 12.746094 8.085938 12.835938 8.179688 12.703125 C 8.160156 12.683594 8.511719 12.769531 8.488281 12.746094 C 8.40625 12.789062 8.589844 12.566406 8.546875 12.582031 C 8.492188 12.449219 8.386719 12.773438 8.179688 12.667969 C 8.125 12.515625 8.363281 12.480469 8.433594 12.46875 C 8.3125 12.609375 8.386719 12.59375 8.417969 12.5625 C 8.433594 12.511719 8.417969 12.492188 8.375 12.578125 C 8.421875 12.464844 8.539062 12.382812 8.3125 12.433594 C 8.570312 12.386719 8.707031 12.335938 8.757812 12.363281 C 8.800781 12.347656 4.757812 17.191406 4.828125 17.1875 C 4.886719 17.195312 4.742188 17.308594 4.660156 17.394531 C 4.808594 17.277344 4.347656 17.136719 4.402344 17.011719 C 4.414062 17.023438 4.574219 16.867188 4.460938 16.953125 Z M 11.457031 10.03125 C 11.5 9.976562 13.453125 7.613281 13.492188 7.59375 C 13.339844 7.621094 13.226562 7.605469 13.175781 7.5625 C 13.140625 7.605469 11.277344 9.820312 11.304688 9.8125 C 11.28125 9.925781 11.292969 10.023438 11.269531 10.054688 C 11.417969 9.984375 11.488281 9.957031 11.457031 10.03125 Z M 12.898438 8.050781 C 12.917969 7.941406 13.070312 7.863281 13.019531 7.753906 C 13.296875 7.789062 12.957031 7.945312 12.898438 8.050781 Z M 12.019531 7.980469 C 11.882812 8.058594 11.867188 8.035156 11.863281 7.988281 C 11.859375 7.988281 11.984375 7.835938 11.988281 7.832031 C 11.992188 7.882812 12.003906 7.925781 12.019531 7.980469 Z M 8.292969 22.144531 C 8.515625 21.726562 6.890625 20.875 7.136719 20.777344 C 6.925781 20.847656 6.960938 20.726562 7.378906 20.507812 C 7.078125 20.789062 6.871094 20.589844 7.136719 20.5 C 6.867188 20.695312 7.109375 20.917969 7.058594 20.558594 C 7.421875 20.394531 7.222656 20.460938 7.289062 20.761719 C 7.242188 20.585938 7.167969 20.625 7.398438 20.296875 C 7.023438 20.726562 8.875 21.679688 8.824219 21.429688 C 8.878906 22.191406 9.769531 22.234375 10.097656 21.875 C 10.703125 21.515625 20.871094 8.898438 20.714844 8.804688 C 21.199219 8.675781 20.777344 9.058594 21.183594 8.554688 C 20.835938 8.8125 20.839844 8.695312 20.730469 8.722656 C 20.945312 8.695312 21.886719 7.765625 21.636719 7.917969 C 21.933594 7.34375 22.511719 6.324219 21.863281 5.757812 C 21.582031 5.878906 19.847656 4.335938 19.699219 4.375 C 19.699219 4.199219 19.78125 4.128906 19.519531 4.570312 C 19.335938 4.308594 21.734375 5.949219 21.800781 5.582031 C 22.09375 6.601562 22.503906 7.460938 22.101562 7.890625 C 22.128906 7.722656 22.050781 7.671875 21.964844 8.03125 C 22.066406 7.71875 22.28125 7.578125 21.78125 7.769531 C 22.066406 7.589844 22.070312 7.707031 21.761719 7.90625 C 21.917969 7.863281 10.160156 21.910156 10.421875 21.945312 C 10.296875 22.398438 9.4375 22.1875 8.292969 22.144531 Z M 20.105469 10.757812 C 20.160156 10.460938 22.160156 8.238281 22.304688 8.21875 C 22.132812 8.363281 22.066406 8.402344 22.210938 8.425781 C 22.121094 8.664062 21.925781 8.507812 22.054688 8.550781 C 21.871094 8.703125 21.917969 8.867188 21.71875 8.574219 C 21.828125 8.714844 21.863281 8.636719 22.03125 9.042969 C 22.105469 8.777344 21.960938 8.65625 22.074219 8.328125 C 21.941406 8.574219 22.261719 8.539062 22.179688 8.292969 C 21.9375 8.433594 22.0625 8.507812 22.0625 8.582031 C 22.457031 8.464844 22.15625 8.65625 22.015625 8.605469 C 22.5 8.523438 22.425781 8.550781 22.703125 8.074219 C 21.992188 7.976562 22.515625 7.667969 22.378906 7.417969 C 22.535156 7.394531 22.632812 7.441406 22.507812 7.449219 C 22.417969 7.34375 22.984375 7.25 22.878906 7.121094 C 22.71875 7.15625 22.691406 7.105469 22.597656 7.101562 C 22.578125 6.46875 22.378906 5.917969 21.816406 5.878906 C 21.628906 5.617188 19.9375 4.09375 19.898438 3.804688 C 19.789062 4.109375 19.984375 4.132812 20.027344 4.027344 C 19.941406 3.855469 19.839844 3.777344 19.832031 4.066406 C 19.859375 3.855469 18.980469 2.984375 18.691406 3.003906 C 18.054688 2.242188 16.976562 2.351562 16.238281 3.113281 C 16.335938 3.113281 13.359375 6.566406 13.550781 6.660156 C 13.664062 6.667969 13.394531 6.730469 13.242188 6.652344 C 13.328125 6.703125 13.027344 7.109375 12.757812 6.835938 C 12.820312 7.179688 12.757812 7.328125 12.902344 7.195312 C 12.957031 7.480469 12.628906 7.417969 12.988281 7.542969 C 12.722656 7.402344 12.976562 7.3125 12.898438 7.46875 C 12.632812 7.675781 12.527344 7.429688 12.460938 7.652344 C 12.566406 7.660156 12.910156 7.625 12.933594 7.566406 C 12.714844 7.617188 11.636719 8.851562 11.707031 9.015625 C 11.644531 8.660156 11.6875 8.953125 11.535156 8.941406 C 11.8125 8.300781 12.398438 8.09375 12.472656 7.761719 C 12.597656 7.714844 12.253906 7.785156 12.078125 7.734375 C 12.21875 7.5 12.21875 7.570312 12.171875 7.625 C 12.269531 7.46875 12.429688 7.632812 12.378906 7.648438 C 12.546875 7.398438 12.492188 7.398438 12.535156 7.296875 C 12.667969 7.292969 12.734375 7.335938 12.640625 7.140625 C 12.441406 7.542969 12.238281 7.363281 12.296875 7.320312 C 12.558594 7.484375 12.320312 7.292969 12.234375 7.632812 C 12.5 7.328125 16.191406 2.953125 16.003906 2.980469 C 16.578125 2.027344 18.207031 1.828125 19.191406 2.710938 C 19.035156 3.042969 22.089844 5.535156 22.234375 5.375 C 22.921875 6.175781 23.410156 7.332031 22.507812 8.308594 C 22.4375 8.230469 21.851562 9.171875 21.804688 9.421875 C 21.695312 9.46875 21.5 9.277344 21.960938 9.289062 C 21.746094 9.082031 21.632812 9.382812 21.863281 9.375 C 21.640625 9.359375 21.601562 9.21875 21.660156 9.382812 C 21.898438 9.382812 21.503906 9.402344 21.65625 9.605469 C 21.738281 9.40625 21.644531 9.460938 21.753906 9.300781 C 21.511719 9.617188 21.582031 9.441406 21.136719 9.808594 C 21.089844 9.835938 21.378906 9.554688 21.3125 9.484375 C 20.992188 9.773438 20.425781 10.230469 20.257812 10.5 C 20.328125 10.667969 20.328125 10.460938 20.105469 10.757812 Z M 21.148438 10.078125 C 21.15625 10.070312 20.84375 10.445312 20.851562 10.445312 C 20.890625 10.300781 21.023438 10.175781 21.148438 10.078125 Z M 5.464844 17.253906 C 5.546875 17.144531 5.222656 17.183594 5.292969 17.148438 C 5.214844 17.183594 8.707031 12.929688 8.8125 12.863281 C 8.746094 12.949219 8.785156 12.933594 8.84375 12.914062 C 8.761719 12.972656 8.699219 12.984375 8.703125 12.902344 C 8.808594 12.847656 8.886719 12.707031 8.890625 12.777344 C 8.886719 12.738281 8.832031 12.824219 8.910156 12.734375 C 8.910156 12.890625 9.050781 12.71875 9.042969 12.558594 C 8.902344 12.65625 9.113281 12.445312 9.09375 12.476562 C 9.285156 12.371094 9.160156 12.472656 9.140625 12.46875 C 9.269531 12.414062 9.050781 12.613281 9.175781 12.480469 C 9.074219 12.558594 9.460938 12.414062 9.429688 12.425781 C 9.488281 12.410156 5.820312 16.898438 5.75 16.945312 C 5.730469 16.925781 5.691406 16.832031 5.667969 16.808594 C 5.582031 16.882812 5.578125 16.945312 5.605469 16.96875 C 5.605469 16.945312 5.832031 16.847656 5.730469 16.984375 C 5.695312 16.929688 5.527344 17.25 5.5625 17.164062 C 5.445312 17.292969 5.621094 17.113281 5.464844 17.253906 Z M 6.824219 21.371094 C 6.789062 21.289062 6.085938 20.757812 6.113281 20.773438 C 6.085938 20.738281 6.066406 20.695312 6.09375 20.691406 C 6.109375 20.753906 6.035156 20.675781 6.058594 20.710938 C 6.046875 20.722656 5.832031 20.566406 5.757812 20.449219 C 5.8125 20.375 5.761719 20.253906 5.742188 20.394531 C 5.703125 20.335938 5.722656 20.433594 5.707031 20.378906 C 5.714844 20.4375 5.613281 20.34375 5.558594 20.261719 C 5.527344 20.269531 5.566406 20.296875 5.574219 20.320312 C 5.621094 20.324219 5.554688 20.3125 5.507812 20.253906 C 5.570312 20.300781 5.027344 19.894531 5.007812 19.816406 C 4.621094 19.527344 4.351562 19.125 4.195312 18.707031 C 4.242188 18.75 4.289062 18.808594 4.28125 18.824219 C 4.28125 18.570312 4.476562 18.519531 4.570312 18.382812 C 4.617188 18.789062 4.882812 19.238281 5.242188 19.535156 C 5.21875 19.5 6.5 20.558594 6.542969 20.664062 C 6.460938 20.550781 6.480469 20.839844 6.429688 20.742188 C 6.515625 20.816406 6.648438 20.835938 6.738281 20.785156 C 6.710938 20.742188 7.109375 21.054688 7.15625 21.144531 C 7.078125 21.167969 7.039062 21.226562 6.804688 21.234375 C 6.816406 21.21875 6.835938 21.210938 6.8125 21.210938 C 6.824219 21.261719 6.84375 21.300781 6.824219 21.371094 Z M 6.554688 20.628906 C 6.554688 20.625 6.613281 20.675781 6.617188 20.675781 C 6.59375 20.703125 6.578125 20.722656 6.574219 20.746094 C 6.492188 20.695312 6.539062 20.667969 6.554688 20.628906 Z M 5.019531 18.039062 C 4.988281 17.960938 4.855469 18.144531 4.878906 18.160156 C 4.980469 17.964844 4.902344 17.734375 4.984375 17.527344 C 5.007812 17.570312 4.953125 17.484375 4.988281 17.5 C 5.050781 17.636719 5.1875 17.65625 5.222656 17.503906 C 4.90625 17.996094 5.007812 18.695312 5.597656 19.222656 C 5.558594 19.167969 6.953125 20.320312 6.9375 20.265625 C 6.875 20.371094 6.84375 20.445312 6.703125 20.375 C 6.675781 20.382812 5.414062 19.351562 5.421875 19.375 C 5.105469 19.078125 4.867188 18.667969 4.792969 18.214844 C 4.921875 18.195312 4.976562 18.09375 5.019531 18.039062 Z M 11.238281 9.953125 C 11.1875 10.304688 11.03125 10.367188 10.757812 10.566406 C 10.738281 10.558594 10.726562 10.539062 10.730469 10.515625 C 10.722656 10.523438 11.203125 9.929688 11.210938 9.925781 C 11.203125 9.933594 11.253906 9.9375 11.238281 9.953125 Z M 10.066406 10.386719 C 10.070312 10.378906 9.902344 10.363281 9.902344 10.363281 C 9.902344 10.363281 9.988281 10.253906 9.992188 10.253906 C 10 10.3125 10.027344 10.351562 10.066406 10.386719 Z M 9.445312 10.917969 C 9.449219 10.910156 9.675781 10.636719 9.679688 10.632812 C 9.589844 10.75 9.613281 10.859375 9.445312 10.917969 Z M 9.6875 10.621094 C 9.691406 10.617188 9.847656 10.429688 9.847656 10.429688 C 9.847656 10.429688 9.871094 10.496094 9.875 10.492188 C 9.78125 10.535156 9.730469 10.574219 9.6875 10.621094 Z M 6.167969 14.890625 C 6.171875 14.890625 6.175781 14.890625 6.175781 14.894531 C 6.175781 14.894531 6.164062 14.898438 6.164062 14.898438 C 6.164062 14.898438 6.167969 14.886719 6.167969 14.890625 Z M 19.5625 11.324219 C 19.535156 11.355469 19.523438 11.390625 19.523438 11.421875 C 19.503906 11.4375 19.484375 11.445312 19.457031 11.449219 C 19.457031 11.453125 19.566406 11.320312 19.5625 11.324219 Z M 10.894531 22.480469 C 11.132812 22.1875 11.054688 22.292969 11.246094 22.195312 C 11.035156 22.296875 10.941406 22.074219 11.242188 21.886719 C 11.097656 22.164062 11.027344 22.136719 11.230469 22.09375 C 11.007812 22.261719 20.585938 10.765625 20.617188 10.558594 C 20.664062 10.335938 20.523438 10.597656 20.238281 10.859375 C 20.234375 10.761719 20.140625 11 20.363281 10.761719 C 20.019531 11.085938 20.195312 10.875 20.203125 10.734375 C 19.800781 11.011719 20.003906 10.972656 19.9375 11.054688 C 20.277344 10.675781 20.074219 10.839844 19.96875 10.683594 C 20.328125 10.519531 19.527344 11.332031 19.894531 10.964844 C 19.601562 11.183594 19.6875 11.234375 19.605469 11.269531 C 19.714844 11.265625 19.714844 11.28125 19.476562 11.375 C 19.429688 11.332031 19.875 11.167969 19.820312 11.113281 C 19.589844 11.285156 19.683594 11.300781 19.550781 11.371094 C 19.539062 11.472656 19.835938 11.585938 19.351562 12.183594 C 19.277344 11.992188 19.464844 11.980469 19.480469 11.703125 C 19.183594 11.910156 19.375 11.78125 19.394531 11.585938 C 19.445312 11.480469 10.808594 21.886719 10.679688 22.117188 C 10.269531 22.601562 9.371094 22.523438 8.222656 22.0625 C 8.464844 21.878906 8.179688 21.726562 7.914062 21.894531 C 8.035156 21.839844 7.800781 22.023438 7.980469 21.996094 C 8.117188 21.78125 7.773438 22.023438 7.472656 22.050781 C 7.929688 21.671875 7.699219 21.980469 7.933594 21.652344 C 7.847656 21.832031 7.019531 21.402344 7.316406 21.101562 C 7.203125 21.441406 6.949219 21.535156 7.3125 21.558594 C 7.070312 21.582031 7.4375 21.359375 7.257812 21.535156 C 6.976562 21.761719 7.132812 21.527344 7.007812 21.617188 C 7.046875 21.695312 7.441406 21.519531 7.476562 21.476562 C 7.175781 21.644531 7.53125 22.261719 7.523438 22.367188 C 7.652344 22.085938 7.714844 22.167969 7.539062 22.238281 C 7.882812 21.910156 7.863281 21.984375 7.976562 22.011719 C 8.152344 21.941406 7.917969 22.144531 7.6875 22.207031 C 7.992188 21.921875 7.996094 22.4375 7.90625 22.511719 C 8.21875 22.398438 8.394531 22.496094 8.429688 22.601562 C 8.640625 22.359375 8.511719 22.441406 8.542969 22.414062 C 8.753906 22.382812 8.785156 22.445312 8.722656 22.402344 C 9.191406 23.351562 10.734375 22.828125 10.894531 22.480469 Z M 8.679688 22.347656 C 8.679688 22.339844 8.859375 22.570312 8.863281 22.570312 C 8.859375 22.570312 8.582031 22.5 8.585938 22.5 C 8.585938 22.507812 8.683594 22.34375 8.679688 22.347656 Z M 10.503906 22.734375 C 10.722656 22.542969 10.761719 22.253906 11.0625 22.21875 C 10.851562 22.367188 10.679688 22.632812 10.503906 22.734375 Z M 4.535156 17.347656 C 4.539062 17.488281 4.351562 17.648438 4.144531 17.765625 C 4.167969 17.5625 4.226562 17.375 4.324219 17.195312 C 4.421875 17.210938 4.519531 17.214844 4.535156 17.347656 Z M 8.074219 12.578125 C 8.109375 12.617188 8.113281 12.675781 8.058594 12.714844 C 8.039062 12.699219 8.019531 12.683594 7.996094 12.675781 C 7.996094 12.679688 8.078125 12.574219 8.074219 12.578125 Z M 9.386719 10.992188 C 9.796875 11.1875 9.109375 11.253906 9.089844 11.515625 C 9.074219 11.515625 9.070312 11.511719 9.082031 11.507812 C 9.050781 11.464844 9 11.414062 9.066406 11.515625 C 9.058594 11.523438 9.066406 11.527344 9.066406 11.507812 C 9.082031 11.511719 9.078125 11.515625 9.085938 11.539062 C 9.082031 11.546875 9.082031 11.566406 9.097656 11.570312 C 9.085938 11.574219 9.101562 11.550781 9.089844 11.519531 C 9.070312 11.523438 9.078125 11.519531 9.078125 11.515625 C 9.171875 11.488281 9.214844 11.710938 9.203125 11.734375 C 9.035156 11.820312 8.992188 11.632812 8.902344 11.574219 C 8.890625 11.582031 9.40625 10.96875 9.386719 10.992188 Z M 9.386719 10.992188 " fill-opacity="1" fill-rule="nonzero"/></g></g></g></g></g></g></g></svg>